# xmcd
#
# Track frame offsets: 
#        150
#        4086
#        16160
#        26276
#        36044
#        47590
#        51566
#        64619
#        71558
#        76000
#        86828
#        97383
#        107635
#        116705
#        124511
#        128848
#        132949
#        141259
#        151536
#        160854
#        172280
#        179439
#        183679
#        189105
#        195892
#        206427
#        215089
#        224045
#        236180
#        242547
#        245938
#        253007
#
# Disc length: 3423 seconds
#
# Revision: 0
# Processed by: cddbd v1.5.2PL0 Copyright (c) Steve Scherf et al.
# Submitted via: ExactAudioCopy v0.95b4
#
DISCID=ce0d5d20
DTITLE=Jim Reeves - Around The World
DYEAR=1900
DGENRE=Country
TTITLE0=Intro to Show A
TTITLE1=Yours
TTITLE2=There's Only You
TTITLE3=It's Not For Me To Say
TTITLE4=My Happiness
TTITLE5=Better Than Gold
TTITLE6=Just Between You And Me
TTITLE7=Commercial
TTITLE8=Theme
TTITLE9=I'm Gonna Sit Right Down
TTITLE10=Moonlight Swim
TTITLE11=June Night
TTITLE12=Love Me To Pieces
TTITLE13=Around The World
TTITLE14=Outro
TTITLE15=Intro to Show B
TTITLE16=Dansero
TTITLE17=With You On My Mind
TTITLE18=Swinging Sweethearts
TTITLE19=Love Letters In The Sand
TTITLE20=Language Of Love
TTITLE21=Outro and Theme
TTITLE22=commercial
TTITLE23=Theme
TTITLE24=Honeycomb
TTITLE25=Affair To Remember
TTITLE26=I'm Gonna Sit Right Down
TTITLE27=Lips Of Wine
TTITLE28=Tammy
TTITLE29=Ain't It Fine Today?
TTITLE30=In The Middle Of An Island
TTITLE31=Outro
EXTD=
EXTT0=
EXTT1=
EXTT2=
EXTT3=
EXTT4=
EXTT5=
EXTT6=
EXTT7=
EXTT8=
EXTT9=
EXTT10=
EXTT11=
EXTT12=
EXTT13=
EXTT14=
EXTT15=
EXTT16=
EXTT17=
EXTT18=
EXTT19=
EXTT20=
EXTT21=
EXTT22=
EXTT23=
EXTT24=
EXTT25=
EXTT26=
EXTT27=
EXTT28=
EXTT29=
EXTT30=
EXTT31=
PLAYORDER=
